<svg class="ms-root ck-svg ck-quill ck-magpie ck-pose-idle" viewBox="0 0 420 520" xmlns="http://www.w3.org/2000/svg" role="img" aria-label="Quill the magpie chick: Idle"><title>Quill the magpie chick — Idle</title><desc>At rest: floats, blinks, soft sway.</desc><style>
  .ck-svg{display:block;user-select:none;-webkit-user-select:none}
  .ck-float{animation:ck-float 3.6s ease-in-out infinite}
  .ck-halo{animation:ck-glow 3.1s ease-in-out infinite}
  .ck-pool{animation:ck-pool 3.6s ease-in-out infinite}
  .ck-dance,.ck-run{transform-box:fill-box;transform-origin:center bottom}
  .ck-fly,.ck-spin,.ck-pulse,.ck-blink{transform-box:fill-box;transform-origin:center}
  .ck-dance{animation:ck-dance .82s ease-in-out infinite}
  .ck-run{animation:ck-run .34s ease-in-out infinite}
  .ck-fly{animation:ck-fly 1.35s ease-in-out infinite}
  .ck-spin{animation:ck-spin 1.15s linear infinite}
  .ck-pulse{animation:ck-pulse 1.2s ease-in-out infinite}
  .ck-drift{animation:ck-drift 2s ease-out infinite;opacity:.9}
  .ck-blink{animation:ck-blink 4.8s ease-in-out infinite}
  .ck-svg[data-paused] *{animation-play-state:paused!important}
  @keyframes ck-float{0%,100%{transform:translateY(0)}50%{transform:translateY(-8px)}}
  @keyframes ck-glow{0%,100%{opacity:.22}50%{opacity:.5}}
  @keyframes ck-pool{0%,100%{opacity:.72}50%{opacity:.42}}
  @keyframes ck-dance{0%,100%{transform:rotate(-4deg) translateY(0)}50%{transform:rotate(5deg) translateY(-10px)}}
  @keyframes ck-run{0%,100%{transform:rotate(-3deg) translate(5px,2px)}50%{transform:rotate(4deg) translate(-4px,-12px)}}
  @keyframes ck-fly{0%,100%{transform:translateY(0) rotate(-2deg)}50%{transform:translateY(-24px) rotate(3deg)}}
  @keyframes ck-spin{to{transform:rotate(360deg)}}
  @keyframes ck-pulse{0%,100%{opacity:.35;transform:scale(.86)}50%{opacity:1;transform:scale(1.08)}}
  @keyframes ck-drift{0%{opacity:.55;transform:translateY(12px)}25%{opacity:1}100%{opacity:0;transform:translateY(-34px)}}
  @keyframes ck-blink{0%,44%,48%,100%{transform:scaleY(1)}46%{transform:scaleY(.08)}}
  @media (prefers-reduced-motion:reduce){.ck-svg *{animation:none!important}}
</style><defs><radialGradient id="quill-idle-halo" cx="50%" cy="46%" r="58%"><stop offset="0" stop-color="var(--ms-core,#E9B66A)" stop-opacity=".78"></stop><stop offset="1" stop-color="var(--ms-core,#E9B66A)" stop-opacity="0"></stop></radialGradient><radialGradient id="quill-idle-pool" cx="50%" cy="50%" r="52%"><stop offset="0" stop-color="var(--ms-core,#E9B66A)" stop-opacity=".55"></stop><stop offset="1" stop-color="var(--ms-core,#E9B66A)" stop-opacity="0"></stop></radialGradient><linearGradient id="quill-idle-body" x1="0" y1="0" x2="0" y2="1"><stop offset="0" stop-color="var(--ms-top,#F5F1E9)"></stop><stop offset=".42" stop-color="var(--ms-mid,#22222C)"></stop><stop offset="1" stop-color="var(--ms-base,#101016)"></stop></linearGradient></defs><rect width="420" height="520" fill="var(--ms-stage,#14161E)" opacity=".001"></rect><g data-ms-part="shadow"><ellipse class="ck-pool" cx="210" cy="492" rx="98" ry="14" fill="url(#quill-idle-pool)"></ellipse><ellipse cx="210" cy="492" rx="70" ry="7" fill="#000" opacity=".18"></ellipse></g><ellipse data-ms-part="halo" class="ck-halo ms-glow-halo" cx="210" cy="286" rx="168" ry="172" fill="url(#quill-idle-halo)"></ellipse><g class="ck-float"><g data-ms-part="wings" data-ck-wing-layer="rear"></g><g data-ms-part="accessory"><ellipse cx="278" cy="496" rx="34" ry="6" fill="var(--ms-base,#101016)" opacity=".32"></ellipse><ellipse cx="278" cy="478" rx="32" ry="14" fill="var(--ms-mid,#22222C)" stroke="var(--ms-features,#0C0C12)" stroke-width="3"></ellipse><ellipse cx="278" cy="468" rx="28" ry="11" fill="var(--ms-base,#101016)"></ellipse><ellipse cx="278" cy="464" rx="18" ry="7" fill="var(--ms-features,#0C0C12)"></ellipse><ellipse cx="278" cy="462" rx="10" ry="3.5" fill="var(--ms-base,#101016)" opacity=".8"></ellipse><path d="M292 458 L312 392" stroke="var(--ms-features,#0C0C12)" stroke-width="3.6" stroke-linecap="round"></path><path d="M312 392 C326 382 340 396 326 410 C312 418 300 400 312 392Z" fill="var(--ms-top,#F5F1E9)" stroke="var(--ms-features,#0C0C12)" stroke-width="2.2"></path><path d="M304 398 L320 406" fill="none" stroke="var(--ms-core,#E9B66A)" stroke-width="2" stroke-linecap="round" opacity=".7"></path></g><g data-ms-part="body"><path d="M210 178 C248 178 268 228 266 292 C264 348 250 392 232 424 C224 438 196 438 188 424 C170 392 156 348 154 292 C152 228 172 178 210 178Z" fill="url(#quill-idle-body)"></path><ellipse cx="154" cy="304" rx="16" ry="30" fill="var(--ms-base,#101016)" opacity=".55"></ellipse><ellipse cx="266" cy="304" rx="16" ry="30" fill="var(--ms-base,#101016)" opacity=".55"></ellipse><path d="M148 280 C150 320 154 360 160 392" fill="none" stroke="var(--ms-top,#F5F1E9)" stroke-width="3" stroke-linecap="round" opacity=".28"></path><path d="M272 280 C270 320 266 360 260 392" fill="none" stroke="var(--ms-top,#F5F1E9)" stroke-width="3" stroke-linecap="round" opacity=".28"></path><ellipse cx="210" cy="238" rx="44" ry="40" fill="var(--ms-top,#F5F1E9)" opacity=".98"></ellipse><ellipse cx="210" cy="312" rx="24" ry="58" fill="var(--ms-top,#F5F1E9)" opacity=".96"></ellipse><path d="M188 418 C196 448 200 478 204 508 L210 516 L216 508 C220 478 224 448 232 418 C220 424 200 424 188 418Z" fill="var(--ms-mid,#22222C)"></path><path d="M196 422 C202 452 206 480 208 506 L210 512 L212 506 C214 480 218 452 224 422 C214 426 206 426 196 422Z" fill="var(--ms-base,#101016)"></path><path d="M206 500 L210 514 L214 500" fill="var(--ms-top,#F5F1E9)" opacity=".75"></path><path d="M200 456 L220 456" fill="none" stroke="var(--ms-top,#F5F1E9)" stroke-width="3" stroke-linecap="round" opacity=".35"></path><path d="M202 478 L218 478" fill="none" stroke="var(--ms-top,#F5F1E9)" stroke-width="2.5" stroke-linecap="round" opacity=".28"></path><path d="M178 198 Q210 178 242 198" fill="none" stroke="var(--ms-top,#F5F1E9)" stroke-width="3.2" stroke-linecap="round" opacity=".2"></path></g><g data-ms-part="app-badge"><g><rect x="181" y="341" width="58" height="61" rx="7" fill="var(--ms-core,#E9B66A)" stroke="var(--ms-features,#0C0C12)" stroke-width="5"></rect><path d="M193 341 v61 M202 359 h25 M202 374 h20" fill="none" stroke="var(--ms-features,#0C0C12)" stroke-width="4" stroke-linecap="round"></path></g></g><g data-ms-part="tuft"><path d="M196 188 Q204 164 214 186" fill="none" stroke="var(--ms-top,#F5F1E9)" stroke-width="4.5" stroke-linecap="round"></path><path d="M208 186 Q218 160 228 184" fill="none" stroke="var(--ms-top,#F5F1E9)" stroke-width="3.4" stroke-linecap="round" opacity=".85"></path><path d="M212 182 Q220 168 224 182" fill="none" stroke="var(--ms-core,#E9B66A)" stroke-width="2.2" stroke-linecap="round" opacity=".5"></path></g><g data-ms-part="wings" data-ck-wing-layer="front"><g data-ck-wing="left" data-ck-wing-mode="rest" transform="translate(156,306)"><g><animateTransform attributeName="transform" type="rotate" additive="sum" values="-3;4;-3" dur="2.6s" begin="0s" repeatCount="indefinite"></animateTransform><g><ellipse cx="10" cy="12" rx="18" ry="22" fill="var(--ms-base,#101016)"></ellipse><path data-ck-wing-primary="1" d="M10,2 C-4,22 -22,56 -18,100 C-14,128 6,134 16,104 C22,72 20,36 14,12 C12,6 10,2 10,2 Z" fill="var(--ms-base,#101016)" stroke="var(--ms-top,#F5F1E9)" stroke-width="3.2" stroke-opacity=".55" stroke-linejoin="round"></path><path d="M8,10 C-2,34 -6,68 6,96 C14,80 16,40 8,10 Z" fill="var(--ms-top,#F5F1E9)" opacity=".55"></path><g fill="none" stroke="var(--ms-top,#F5F1E9)" stroke-linecap="round" opacity=".28"><path d="M6,22 C-6,50 -8,84 0,110" stroke-width="2.2"></path><path d="M4,34 C-14,64 -20,96 -10,118" stroke-width="2.2"></path></g></g></g></g><g data-ck-wing="right" data-ck-wing-mode="rest" transform="translate(264,306)"><g><animateTransform attributeName="transform" type="rotate" additive="sum" values="3;-4;3" dur="2.6s" begin="-0.8s" repeatCount="indefinite"></animateTransform><g transform="scale(-1,1)"><ellipse cx="10" cy="12" rx="18" ry="22" fill="var(--ms-base,#101016)"></ellipse><path data-ck-wing-primary="1" d="M10,2 C-4,22 -22,56 -18,100 C-14,128 6,134 16,104 C22,72 20,36 14,12 C12,6 10,2 10,2 Z" fill="var(--ms-base,#101016)" stroke="var(--ms-top,#F5F1E9)" stroke-width="3.2" stroke-opacity=".55" stroke-linejoin="round"></path><path d="M8,10 C-2,34 -6,68 6,96 C14,80 16,40 8,10 Z" fill="var(--ms-top,#F5F1E9)" opacity=".55"></path><g fill="none" stroke="var(--ms-top,#F5F1E9)" stroke-linecap="round" opacity=".28"><path d="M6,22 C-6,50 -8,84 0,110" stroke-width="2.2"></path><path d="M4,34 C-14,64 -20,96 -10,118" stroke-width="2.2"></path></g></g></g></g></g><g data-ms-part="feet" fill="none" stroke="var(--ms-core,#E9B66A)" stroke-width="4.5" stroke-linecap="round"><path d="M184 434 L176 462 M176 462 L162 470 M176 462 L176 474 M176 462 L190 470"></path><path d="M220 434 L228 462 M228 462 L214 470 M228 462 L228 474 M228 462 L242 470"></path></g><g data-ms-part="eyes" class="ck-eyes"><circle cx="172" cy="248" r="7" fill="var(--ms-accent,#6B7AB8)" opacity=".48"></circle><circle cx="248" cy="248" r="7" fill="var(--ms-accent,#6B7AB8)" opacity=".48"></circle><g class="ck-blink"><ellipse cx="186" cy="228" rx="9.5" ry="19" fill="#FFFDF8" stroke="var(--ms-features,#0C0C12)" stroke-width="4.2"></ellipse><g class="ms-eyes"><ellipse cx="186" cy="229" rx="5.2250000000000005" ry="11.78" fill="var(--ms-features,#0C0C12)"></ellipse><ellipse cx="183.8" cy="223" rx="2.2" ry="3.2" fill="#fff"></ellipse><circle cx="188" cy="233" r="1.1" fill="#fff" opacity=".6"></circle></g></g><g class="ck-blink"><ellipse cx="234" cy="228" rx="9.5" ry="19" fill="#FFFDF8" stroke="var(--ms-features,#0C0C12)" stroke-width="4.2"></ellipse><g class="ms-eyes"><ellipse cx="234" cy="229" rx="5.2250000000000005" ry="11.78" fill="var(--ms-features,#0C0C12)"></ellipse><ellipse cx="231.8" cy="223" rx="2.2" ry="3.2" fill="#fff"></ellipse><circle cx="236" cy="233" r="1.1" fill="#fff" opacity=".6"></circle></g></g></g><g data-ms-part="beak"><path data-ck-beak="lower" d="M199,265 Q210,280 221,265 Q210,270 199,265 Z" fill="var(--ms-features,#0C0C12)" stroke="var(--ms-features,#0C0C12)" stroke-width="2.4" stroke-linejoin="round"></path><path data-ck-beak="upper" d="M196,264 Q210,248 224,264 Q210,271 196,264 Z" fill="var(--ms-features,#0C0C12)" stroke="var(--ms-features,#0C0C12)" stroke-width="2.6" stroke-linejoin="round"></path><path d="M200,263 Q210,254 220,263" fill="none" stroke="var(--ms-top,#F5F1E9)" stroke-width="1.6" stroke-linecap="round" opacity=".3"></path></g><g data-ms-part="wings" data-ck-wing-layer="face"></g><g data-ms-part="prop"></g></g><g data-ms-part="effects"></g></svg>