<svg class="ck-svg ck-zest ck-hummingbird ck-pose-idle" viewBox="0 0 420 520" xmlns="http://www.w3.org/2000/svg" role="img" aria-label="Zest the hummingbird chick: Idle"><style>
  .ck-svg{display:block;user-select:none;-webkit-user-select:none}
  .ck-float{animation:ck-float 3.6s ease-in-out infinite}
  .ck-halo{animation:ck-glow 3.1s ease-in-out infinite}
  .ck-pool{animation:ck-pool 3.6s ease-in-out infinite}
  .ck-dance{animation:ck-dance .82s ease-in-out infinite}
  .ck-run{animation:ck-run .34s ease-in-out infinite}
  .ck-fly{animation:ck-fly 1.35s ease-in-out infinite}
  .ck-spin{animation:ck-spin 1.15s linear infinite;transform-origin:center}
  .ck-pulse{animation:ck-pulse 1.2s ease-in-out infinite;transform-origin:center}
  .ck-drift{animation:ck-drift 2s ease-out infinite}
  .ck-blink{animation:ck-blink 4.8s ease-in-out infinite;transform-origin:center}
  .ck-gleam{animation:ck-gleam 6.5s ease-in-out infinite}
  .ck-svg[data-paused] *{animation-play-state:paused!important}
  @keyframes ck-float{0%,100%{transform:translateY(0)}50%{transform:translateY(-8px)}}
  @keyframes ck-glow{0%,100%{opacity:.22}50%{opacity:.5}}
  @keyframes ck-pool{0%,100%{opacity:.72}50%{opacity:.42}}
  @keyframes ck-dance{0%,100%{transform:rotate(-4deg) translateY(0)}50%{transform:rotate(5deg) translateY(-10px)}}
  @keyframes ck-run{0%,100%{transform:rotate(-3deg) translate(5px,2px)}50%{transform:rotate(4deg) translate(-4px,-12px)}}
  @keyframes ck-fly{0%,100%{transform:translateY(0) rotate(-2deg)}50%{transform:translateY(-24px) rotate(3deg)}}
  @keyframes ck-spin{to{transform:rotate(360deg)}}
  @keyframes ck-pulse{0%,100%{opacity:.35;transform:scale(.86)}50%{opacity:1;transform:scale(1.08)}}
  @keyframes ck-drift{0%{opacity:0;transform:translateY(12px)}25%{opacity:1}100%{opacity:0;transform:translateY(-34px)}}
  @keyframes ck-blink{0%,44%,48%,100%{transform:scaleY(1)}46%{transform:scaleY(.08)}}
  @keyframes ck-gleam{0%,30%,100%{transform:translateX(-90px);opacity:0}10%{opacity:.45}20%{transform:translateX(90px);opacity:0}}
  @media (prefers-reduced-motion:reduce){.ck-svg *{animation:none!important}}
</style><defs><radialGradient id="zest-idle-halo" cx="50%" cy="46%" r="58%"><stop offset="0" stop-color="#F2C76E" stop-opacity=".78"></stop><stop offset="1" stop-color="#F2C76E" stop-opacity="0"></stop></radialGradient><radialGradient id="zest-idle-pool" cx="50%" cy="50%" r="52%"><stop offset="0" stop-color="#F2C76E" stop-opacity=".55"></stop><stop offset="1" stop-color="#F2C76E" stop-opacity="0"></stop></radialGradient><linearGradient id="zest-idle-body" x1="0" y1="0" x2="0" y2="1"><stop offset="0" stop-color="#C8F8DE"></stop><stop offset=".42" stop-color="#2EB87E"></stop><stop offset="1" stop-color="#1A5E44"></stop></linearGradient><filter id="zest-idle-grain" x="-20%" y="-15%" width="140%" height="130%"><feTurbulence type="fractalNoise" baseFrequency="0.9" numOctaves="2" seed="28" result="n"></feTurbulence><feColorMatrix in="n" type="matrix" values="0 0 0 0 0  0 0 0 0 0  0 0 0 0 0  0 0 0 0.1 0" result="a"></feColorMatrix><feComposite in="a" in2="SourceGraphic" operator="in" result="gg"></feComposite><feMerge><feMergeNode in="SourceGraphic"></feMergeNode><feMergeNode in="gg"></feMergeNode></feMerge></filter></defs><rect width="420" height="520" fill="var(--ms-stage,#122018)" opacity=".001"></rect><ellipse data-ms-part="shadow" class="ck-pool" cx="210" cy="498" rx="64" ry="12" fill="url(#zest-idle-pool)"></ellipse><ellipse cx="210" cy="498" rx="40" ry="7" fill="#000" opacity=".1"></ellipse><ellipse data-ms-part="halo" class="ck-halo ms-glow-halo" cx="210" cy="286" rx="168" ry="172" fill="url(#zest-idle-halo)"></ellipse><g class="ck-float" filter="url(#zest-idle-grain)"><g data-ms-part="accessory"><g transform="translate(210 412)"><ellipse cx="0" cy="22" rx="3.2" ry="18" fill="var(--ms-base,#1A5E44)"></ellipse><ellipse cx="0" cy="-11" rx="9.5" ry="15" fill="var(--ms-core,#F2C76E)" opacity=".95" transform="rotate(0)"></ellipse><ellipse cx="0" cy="-11" rx="9.5" ry="15" fill="var(--ms-core,#F2C76E)" opacity=".95" transform="rotate(72)"></ellipse><ellipse cx="0" cy="-11" rx="9.5" ry="15" fill="var(--ms-core,#F2C76E)" opacity=".95" transform="rotate(144)"></ellipse><ellipse cx="0" cy="-11" rx="9.5" ry="15" fill="var(--ms-core,#F2C76E)" opacity=".95" transform="rotate(216)"></ellipse><ellipse cx="0" cy="-11" rx="9.5" ry="15" fill="var(--ms-core,#F2C76E)" opacity=".95" transform="rotate(288)"></ellipse><circle cx="0" cy="0" r="8" fill="var(--ms-top,#C8F8DE)"></circle><circle cx="0" cy="0" r="3.2" fill="var(--ms-features,#14281E)" opacity=".28"></circle></g></g><g data-ms-part="wings"><path d="M178,262 C118,228 62,236 36,262 C68,280 128,286 178,274 Z" fill="var(--ms-mid,#2EB87E)"></path><path d="M242,262 C302,228 358,236 384,262 C352,280 292,286 242,274 Z" fill="var(--ms-mid,#2EB87E)"></path><path d="M178,262 C118,228 62,236 36,262 C68,280 128,286 178,274 Z" fill="var(--ms-top,#C8F8DE)" opacity=".28"></path><path d="M242,262 C302,228 358,236 384,262 C352,280 292,286 242,274 Z" fill="var(--ms-top,#C8F8DE)" opacity=".28"></path><path d="M178,262 Q62,236 36,262" fill="none" stroke="var(--ms-top,#C8F8DE)" stroke-width="3" stroke-linecap="round" opacity=".38"></path><path d="M242,262 Q358,236 384,262" fill="none" stroke="var(--ms-top,#C8F8DE)" stroke-width="3" stroke-linecap="round" opacity=".38"></path></g><g data-ms-part="body"><path d="M210 196 C234 196 250 228 248 274 C246 314 232 344 210 354 C188 344 174 314 172 274 C170 228 186 196 210 196Z" fill="url(#zest-idle-body)"></path><path d="M188 276 C200 264 220 264 232 276 C226 296 216 308 210 312 C204 308 194 296 188 276Z" fill="#F0C060" opacity=".95"></path><ellipse cx="210" cy="292" rx="16" ry="9" fill="var(--ms-top,#C8F8DE)" opacity=".35"></ellipse><path d="M202 344 Q184 368 166 380" fill="none" stroke="var(--ms-base,#1A5E44)" stroke-width="11" stroke-linecap="round"></path><path d="M218 344 Q236 368 254 380" fill="none" stroke="var(--ms-base,#1A5E44)" stroke-width="11" stroke-linecap="round"></path><path d="M202 344 Q184 368 166 380" fill="none" stroke="var(--ms-mid,#2EB87E)" stroke-width="5" stroke-linecap="round" opacity=".7"></path><path d="M218 344 Q236 368 254 380" fill="none" stroke="var(--ms-mid,#2EB87E)" stroke-width="5" stroke-linecap="round" opacity=".7"></path><path d="M192 210 Q210 196 228 210" fill="none" stroke="#FFF8E8" stroke-width="3.2" stroke-linecap="round" opacity=".32"></path><g data-ms-part="app-badge"><circle cx="210" cy="332" r="15" fill="var(--ms-core,#F2C76E)" stroke="var(--ms-features,#14281E)" stroke-width="3.5"></circle><path d="M202 332 l5 5 10-12" fill="none" stroke="var(--ms-features,#14281E)" stroke-width="3.5" stroke-linecap="round" stroke-linejoin="round"></path></g></g><g data-ms-part="tuft"><path d="M202 202 Q210 184 218 202" fill="none" stroke="var(--ms-core,#F2C76E)" stroke-width="5" stroke-linecap="round"></path><path d="M206 198 Q210 188 214 198" fill="none" stroke="var(--ms-top,#C8F8DE)" stroke-width="2.5" stroke-linecap="round" opacity=".7"></path></g><g data-ms-part="feet" stroke="var(--ms-features,#14281E)" stroke-width="2.8" stroke-linecap="round" fill="none" opacity=".45"><path d="M204 348 L202 358"></path><path d="M216 348 L218 358"></path></g><g data-ms-part="eyes" class="ms-eyes ck-eyes"><circle cx="180" cy="248" r="5.5" fill="#F0A090" opacity=".48"></circle><circle cx="240" cy="248" r="5.5" fill="#F0A090" opacity=".48"></circle><g class="ck-blink"><ellipse cx="194" cy="236" rx="10.2" ry="10.9" fill="var(--ms-core,#F2C76E)" opacity=".55"></ellipse><ellipse cx="194" cy="236" rx="10.2" ry="10.9" fill="none" stroke="var(--ms-features,#14281E)" stroke-width="1.4" opacity=".35"></ellipse><ellipse cx="194" cy="236" rx="6.2" ry="7.4" fill="var(--ms-features,#14281E)"></ellipse><ellipse cx="192.2" cy="233.8" rx="2.1" ry="2.5" fill="#FFF8E8" opacity=".92"></ellipse><circle cx="195.4" cy="237.8" r="0.9" fill="#FFF8E8" opacity=".5"></circle></g><g class="ck-blink"><ellipse cx="226" cy="236" rx="10.2" ry="10.9" fill="var(--ms-core,#F2C76E)" opacity=".55"></ellipse><ellipse cx="226" cy="236" rx="10.2" ry="10.9" fill="none" stroke="var(--ms-features,#14281E)" stroke-width="1.4" opacity=".35"></ellipse><ellipse cx="226" cy="236" rx="6.2" ry="7.4" fill="var(--ms-features,#14281E)"></ellipse><ellipse cx="224.2" cy="233.8" rx="2.1" ry="2.5" fill="#FFF8E8" opacity=".92"></ellipse><circle cx="227.4" cy="237.8" r="0.9" fill="#FFF8E8" opacity=".5"></circle></g></g><g data-ms-part="beak"><path data-ck-beak="lower" d="M203,266 Q210,314 217,266 Q210,272 203,266 Z" fill="#1A2430" stroke="var(--ms-features,#14281E)" stroke-width="2.4" stroke-linejoin="round"></path><path data-ck-beak="upper" d="M202,258 Q210,250 218,258 L215,314 Q210,320 205,314 Z" fill="#1A2430" stroke="var(--ms-features,#14281E)" stroke-width="2.6" stroke-linejoin="round"></path><path d="M207,260 L209,308" fill="none" stroke="#5A6A78" stroke-width="1.8" opacity=".55" stroke-linecap="round"></path></g></g><g data-ms-part="prop"></g><g data-ms-part="effects"></g></svg>